<?xml version="1.0" encoding="utf-8"?>
<!-- Generator: Adobe Illustrator 26.0.2, SVG Export Plug-In . SVG Version: 6.00 Build 0)  -->
<svg version="1.1" id="Layer_1" xmlns="http://www.w3.org/2000/svg" xmlns:xlink="http://www.w3.org/1999/xlink" x="0px" y="0px"
	 viewBox="0 0 100 100" style="enable-background:new 0 0 100 100;" xml:space="preserve">
<style type="text/css">
	.st0{fill:#FFFFFF;}
</style>
<g id="Layer_2_00000008835234306360399740000013186226239873648571_">
</g>
<g id="Layer_1_00000091696159417323508850000013832535691435779259_">
	<g>
		<g>
			<g>
				<path class="st0" d="M87,50.4h7.6c2.2,0,3.6-2.4,2.4-4.3L84.3,25.6c-1.1-1.8-3.7-1.8-4.8,0L66.7,46c-1.2,1.9,0.2,4.3,2.4,4.3
					h7.6c0,0.1,0,0.2,0,0.2c-0.3,17.1-14.5,31.2-31.6,31.3C26.6,82,11.7,66.4,13,47.7c1-15.4,13.3-28.1,28.7-29.6
					c8.1-0.8,15.6,1.4,21.6,5.7c1.4,1,3.3,0.6,4.2-0.9l2.3-3.9c0.8-1.3,0.4-3-0.8-3.9c-7-4.6-15.3-7.4-24.2-7.4
					c-24.4,0-44,20.7-42.2,45.5c1.5,20.7,18.2,37.4,38.9,38.9C66.2,94,86.8,74.6,87,50.4z"/>
			</g>
		</g>
	</g>
</g>
</svg>
